<?xml version="1.0" encoding="UTF-8" standalone="no"?>
<svg
   height="100"
   viewBox="0 0 86 107"
   ***REMOVED***ll="none"
   version="1.1"
   id="svg51"
   sodipodi:docname="emacs-e-orange-darker.svg"
   inkscape:version="1.1.1 (c3084ef, 2021-09-22)"
   xmlns:inkscape="http://www.inkscape.org/namespaces/inkscape"
   xmlns:sodipodi="http://sodipodi.sourceforge.net/DTD/sodipodi-0.dtd"
   xmlns="http://www.w3.org/2000/svg"
   xmlns:svg="http://www.w3.org/2000/svg">
  <defs
     id="defs55" />
  <sodipodi:namedview
     id="namedview53"
     pagecolor="#ffffff"
     bordercolor="#666666"
     borderopacity="1.0"
     inkscape:pageshadow="2"
     inkscape:pageopacity="0.0"
     inkscape:pagecheckerboard="0"
     showgrid="false"
     inkscape:zoom="8.97"
     inkscape:cx="21.014493"
     inkscape:cy="50"
     inkscape:window-width="1312"
     inkscape:window-height="1081"
     inkscape:window-x="1715"
     inkscape:window-y="97"
     inkscape:window-maximized="0"
     inkscape:current-layer="svg51" />
  <path
     d="M 35.684432,2.414371 C 51.596051,6.4730319 61.046468,12.37858 63.185587,16.938833 65.790075,22.491175 58.1583,26.21135 40.2224,22.7325 30.956,20.9349 26.2183,22.203 24.6233,24.3817 17.569,34.0071 42.023,50.4654 53.3936,57.1938 -1.82031,43.4302 -27.0365,81.1662 44.5521,96.697 c 6.1236,1.3288 17.8718,1.8044 17.8415,3.568 -0.0034,1.896 -30.1831,2.054 -46.1025,2.54 10.858,2.904 36.9642,4.88 53.9391,3.271 16.4994,-1.561 23.7055,-7.1632 2.8966,-12.2828 C 62.3868,91.1525 20.2969,83.1695 24.7312,74.6638 31.2089,62.2426 59.2036,65.234 75.5142,63.5376 35.4138,35.97 26.316,29.4744 80.7341,36.5703 94.9709,39.7305 74.712649,16.562009 53.473749,6.8725691 48.485702,4.8931821 41.839525,3.3641875 35.684432,2.414371"
     ***REMOVED***ll="#61afee"
     id="path49" />
  <path
     style="***REMOVED***ll:#fe8019;stroke-width:0.111483;***REMOVED***ll-opacity:1"
     d="M 48.160535,99.497698 C 37.136984,99.073012 25.372431,97.803449 19.793052,96.436443 l -1.008214,-0.247023 0.501673,-0.06874 c 0.275919,-0.03781 4.23913,-0.14748 8.807134,-0.243714 21.426848,-0.4514 29.890306,-0.892366 32.34928,-1.68548 0.652373,-0.210416 0.821163,-0.392667 0.653615,-0.705735 C 60.703848,92.752 58.767983,92.322643 51.783724,91.420255 45.919884,90.662629 44.759877,90.448237 39.632107,89.174406 20.260757,84.362207 7.5252196,77.157125 4.2312538,69.146505 3.6093881,67.634185 3.4149565,66.524406 3.4855682,64.89027 3.5534907,63.318372 3.7885642,62.447193 4.5176435,61.065414 5.1590438,59.849806 5.7738939,59.068555 7.0419334,57.85796 10.856724,54.215984 17.263794,51.875049 25.863991,50.98099 c 2.154507,-0.223979 10.126973,-0.188062 12.541806,0.0565 4.185492,0.423888 7.979534,1.035103 11.966583,1.9278 1.247172,0.279242 2.292438,0.482859 2.322814,0.452483 0.03038,-0.03038 -0.06194,-0.116318 -0.205155,-0.190983 -0.777298,-0.405254 -3.75213,-2.28007 -6.447676,-4.063491 C 34.310458,41.401262 27.003185,34.312793 25.184268,28.929766 24.697084,27.48796 24.608242,25.863575 24.954645,24.731328 c 0.642198,-2.099069 1.84499,-3.17846 4.210503,-3.778522 2.885597,-0.731991 5.899685,-0.598194 12.417907,0.55124 8.484249,1.496126 14.638029,1.388742 18.115942,-0.316124 1.302174,-0.638323 1.855732,-1.123227 2.29055,-2.006468 1.231748,-2.502036 -0.73667,-5.610486 -5.579291,-8.810598 C 52.32337,7.6701505 46.573476,5.1837394 39.799331,3.1878388 38.971572,2.9439519 38.401681,2.7414648 38.532906,2.7378674 c 0.413124,-0.011325 4.688297,0.8850184 6.896302,1.4458966 4.459756,1.1328686 6.963522,2.0318432 9.936408,3.5676584 5.820259,3.0067886 11.765898,7.0873696 17.042411,11.6964616 1.76898,1.545224 5.233527,5.020424 6.396439,6.416107 1.877612,2.253437 3.177909,4.299933 3.637197,5.724466 0.129048,0.400254 0.176205,0.817983 0.143455,1.270753 -0.04222,0.583758 -0.09561,0.716327 -0.396853,0.985487 -0.672186,0.600598 -1.547785,0.67784 -3.729878,0.329035 -1.606,-0.256715 -8.601583,-1.10773 -12.349134,-1.502274 -12.083256,-1.27213 -18.363149,-1.353534 -21.589556,-0.279854 -0.86925,0.289268 -1.663349,0.9614 -1.812926,1.534474 -0.460711,1.765144 1.741874,4.41723 7.451034,8.971623 3.586267,2.860891 9.380785,7.022205 18.882647,13.560513 2.255971,1.552352 4.086614,2.837612 4.068094,2.856132 -0.160738,0.160738 -5.536414,0.451616 -12.294722,0.665269 -8.553768,0.270414 -12.474011,0.510578 -16.38796,1.003966 -5.306465,0.668928 -9.111748,1.643889 -12.17974,3.120604 -3.083601,1.484227 -5.199354,3.363534 -6.337248,5.629031 -0.642672,1.279532 -0.31574,2.479522 1.037558,3.808312 1.040207,1.021369 2.315432,1.845558 4.547434,2.939042 2.36611,1.159185 4.314305,1.925581 8.082498,3.179557 6.24951,2.079707 13.327006,3.919037 26.365663,6.852022 7.634047,1.717243 10.91807,2.690602 13.712375,4.064242 2.187113,1.075154 3.400223,2.215645 3.400223,3.196679 0,0.520211 -0.442976,1.258427 -1.036795,1.727815 -2.475483,1.956756 -8.474362,3.289309 -17.525078,3.892909 -2.306702,0.153836 -13.231981,0.223341 -16.332219,0.103904 z"
     id="path322"
     transform="matrix(1.07,0,0,1.07,-3.01,0)" />
  <path
     style="***REMOVED***ll:#d65d0e;***REMOVED***ll-opacity:1;stroke-width:0.111483"
     d="m 47.603122,99.424799 c -0.306578,-0.01834 -1.610926,-0.08657 -2.898551,-0.151625 -8.480661,-0.428484 -17.79134,-1.441726 -23.076923,-2.511365 -1.042364,-0.210942 -2.045708,-0.4263 -2.229655,-0.478573 -0.431342,-0.122577 1.665678,-0.199837 11.148272,-0.410732 17.582343,-0.391035 25.719358,-0.782848 28.818283,-1.387657 1.306659,-0.255016 1.624386,-0.374413 1.78249,-0.669833 0.10458,-0.195408 0.07394,-0.281199 -0.197298,-0.552435 -0.618598,-0.6186 -2.520387,-1.01368 -9.161373,-1.903201 C 45.643523,90.536313 44.694841,90.361532 39.910814,89.171101 20.823169,84.421437 8.3841984,77.589663 4.6193107,69.788183 3.767915,68.023948 3.5710735,67.181768 3.5770425,65.328874 c 0.00585,-1.816858 0.1588352,-2.517952 0.8491798,-3.891657 0.6590353,-1.311403 1.2023647,-2.061822 2.2549072,-3.114365 3.6780575,-3.678057 9.4075575,-5.986142 17.6778445,-7.12138 1.708676,-0.234546 2.231833,-0.252317 7.35786,-0.249954 4.521163,0.0021 5.840732,0.03821 7.302118,0.199921 3.710239,0.410554 6.309695,0.830495 10.533607,1.701696 1.62403,0.334964 3.028712,0.592021 3.121516,0.571238 0.102834,-0.02303 -0.04248,-0.165745 -0.372074,-0.365415 -9.562555,-5.793153 -18.003574,-12.197501 -22.216678,-16.856182 -3.471733,-3.838903 -5.083025,-6.739544 -5.24772,-9.446923 -0.178188,-2.929213 1.373677,-4.983374 4.33124,-5.733141 2.820202,-0.714945 5.476257,-0.607609 12.135018,0.490398 5.186797,0.855285 6.6114,0.992342 10.36838,0.997505 2.614324,0.0036 3.506197,-0.0342 4.349151,-0.184308 3.418308,-0.608706 5.516241,-1.766678 6.125162,-3.380834 0.203605,-0.539729 0.240929,-0.822122 0.20166,-1.525815 -0.04082,-0.731545 -0.118052,-1.004503 -0.505354,-1.786112 -2.004132,-4.044505 -9.661228,-8.5951612 -19.925357,-11.8417532 -3.239356,-1.0246235 -3.180822,-1.0449297 0.613155,-0.21271 6.197847,1.3595158 9.796624,2.5991995 13.768116,4.7427534 4.983537,2.6897908 10.069656,6.1542118 14.715719,10.0236418 2.16146,1.800153 6.924924,6.524765 8.184141,8.117389 3.32857,4.209886 4.177301,6.791947 2.499506,7.604153 -0.447749,0.216751 -0.623229,0.235585 -1.689746,0.181352 -0.654561,-0.03329 -2.093121,-0.187747 -3.1968,-0.343248 -9.077602,-1.278977 -20.44012,-2.300117 -25.585284,-2.299327 -4.630628,6.69e-4 -7.189341,0.533157 -8.200529,1.706461 -0.386972,0.449013 -0.400923,0.494927 -0.36206,1.191644 0.07136,1.279325 0.781732,2.374596 2.902205,4.474701 3.3173,3.285433 8.521077,7.19615 22.076214,16.590604 2.8665,1.986642 5.211818,3.646833 5.211818,3.689314 0,0.162752 -3.517004,0.357335 -11.928651,0.659968 -11.380845,0.40946 -15.135711,0.695644 -19.825806,1.511063 -6.80418,1.182974 -11.574252,3.389165 -14.095289,6.519166 -1.350986,1.67732 -1.727292,3.025343 -1.173449,4.203592 1.069269,2.274775 5.589781,4.814475 13.020965,7.315401 6.500881,2.187839 12.777865,3.841864 26.142698,6.888769 8.200136,1.869462 10.974826,2.655433 13.86543,3.927585 2.185344,0.961768 3.766441,2.167257 4.039975,3.080234 0.359406,1.199592 -0.887559,2.422425 -3.519631,3.451514 -3.354319,1.311474 -9.820565,2.319393 -16.503946,2.572537 -2.487314,0.09421 -13.853868,0.121337 -15.273132,0.03645 z"
     id="path2110"
     transform="matrix(1.07,0,0,1.07,-3.01,0)" />
</svg>
