<?xml version="1.0" encoding="UTF-8" standalone="no"?>
<svg
   height="100"
   viewBox="0 0 86 107"
   ***REMOVED***ll="none"
   version="1.1"
   id="svg51"
   sodipodi:docname="emacs-e-orange.svg"
   inkscape:version="1.1.1 (c3084ef, 2021-09-22)"
   xmlns:inkscape="http://www.inkscape.org/namespaces/inkscape"
   xmlns:sodipodi="http://sodipodi.sourceforge.net/DTD/sodipodi-0.dtd"
   xmlns="http://www.w3.org/2000/svg"
   xmlns:svg="http://www.w3.org/2000/svg">
  <defs
     id="defs55" />
  <sodipodi:namedview
     id="namedview53"
     pagecolor="#ffffff"
     bordercolor="#666666"
     borderopacity="1.0"
     inkscape:pageshadow="2"
     inkscape:pageopacity="0.0"
     inkscape:pagecheckerboard="0"
     showgrid="false"
     inkscape:zoom="8.97"
     inkscape:cx="21.014493"
     inkscape:cy="50"
     inkscape:window-width="1312"
     inkscape:window-height="1081"
     inkscape:window-x="1715"
     inkscape:window-y="97"
     inkscape:window-maximized="0"
     inkscape:current-layer="svg51" />
  <path
     d="M 35.684432,2.414371 C 51.596051,6.4730319 61.046468,12.37858 63.185587,16.938833 65.790075,22.491175 58.1583,26.21135 40.2224,22.7325 30.956,20.9349 26.2183,22.203 24.6233,24.3817 17.569,34.0071 42.023,50.4654 53.3936,57.1938 -1.82031,43.4302 -27.0365,81.1662 44.5521,96.697 c 6.1236,1.3288 17.8718,1.8044 17.8415,3.568 -0.0034,1.896 -30.1831,2.054 -46.1025,2.54 10.858,2.904 36.9642,4.88 53.9391,3.271 16.4994,-1.561 23.7055,-7.1632 2.8966,-12.2828 C 62.3868,91.1525 20.2969,83.1695 24.7312,74.6638 31.2089,62.2426 59.2036,65.234 75.5142,63.5376 35.4138,35.97 26.316,29.4744 80.7341,36.5703 94.9709,39.7305 74.712649,16.562009 53.473749,6.8725691 48.485702,4.8931821 41.839525,3.3641875 35.684432,2.414371"
     ***REMOVED***ll="#61afee"
     id="path49" />
  <path
     style="***REMOVED***ll:#fe8019;stroke-width:0.111483;***REMOVED***ll-opacity:1"
     d="M 48.160535,99.497698 C 37.136984,99.073012 25.372431,97.803449 19.793052,96.436443 l -1.008214,-0.247023 0.501673,-0.06874 c 0.275919,-0.03781 4.23913,-0.14748 8.807134,-0.243714 21.426848,-0.4514 29.890306,-0.892366 32.34928,-1.68548 0.652373,-0.210416 0.821163,-0.392667 0.653615,-0.705735 C 60.703848,92.752 58.767983,92.322643 51.783724,91.420255 45.919884,90.662629 44.759877,90.448237 39.632107,89.174406 20.260757,84.362207 7.5252196,77.157125 4.2312538,69.146505 3.6093881,67.634185 3.4149565,66.524406 3.4855682,64.89027 3.5534907,63.318372 3.7885642,62.447193 4.5176435,61.065414 5.1590438,59.849806 5.7738939,59.068555 7.0419334,57.85796 10.856724,54.215984 17.263794,51.875049 25.863991,50.98099 c 2.154507,-0.223979 10.126973,-0.188062 12.541806,0.0565 4.185492,0.423888 7.979534,1.035103 11.966583,1.9278 1.247172,0.279242 2.292438,0.482859 2.322814,0.452483 0.03038,-0.03038 -0.06194,-0.116318 -0.205155,-0.190983 -0.777298,-0.405254 -3.75213,-2.28007 -6.447676,-4.063491 C 34.310458,41.401262 27.003185,34.312793 25.184268,28.929766 24.697084,27.48796 24.608242,25.863575 24.954645,24.731328 c 0.642198,-2.099069 1.84499,-3.17846 4.210503,-3.778522 2.885597,-0.731991 5.899685,-0.598194 12.417907,0.55124 8.484249,1.496126 14.638029,1.388742 18.115942,-0.316124 1.302174,-0.638323 1.855732,-1.123227 2.29055,-2.006468 1.231748,-2.502036 -0.73667,-5.610486 -5.579291,-8.810598 C 52.32337,7.6701505 46.573476,5.1837394 39.799331,3.1878388 38.971572,2.9439519 38.401681,2.7414648 38.532906,2.7378674 c 0.413124,-0.011325 4.688297,0.8850184 6.896302,1.4458966 4.459756,1.1328686 6.963522,2.0318432 9.936408,3.5676584 5.820259,3.0067886 11.765898,7.0873696 17.042411,11.6964616 1.76898,1.545224 5.233527,5.020424 6.396439,6.416107 1.877612,2.253437 3.177909,4.299933 3.637197,5.724466 0.129048,0.400254 0.176205,0.817983 0.143455,1.270753 -0.04222,0.583758 -0.09561,0.716327 -0.396853,0.985487 -0.672186,0.600598 -1.547785,0.67784 -3.729878,0.329035 -1.606,-0.256715 -8.601583,-1.10773 -12.349134,-1.502274 -12.083256,-1.27213 -18.363149,-1.353534 -21.589556,-0.279854 -0.86925,0.289268 -1.663349,0.9614 -1.812926,1.534474 -0.460711,1.765144 1.741874,4.41723 7.451034,8.971623 3.586267,2.860891 9.380785,7.022205 18.882647,13.560513 2.255971,1.552352 4.086614,2.837612 4.068094,2.856132 -0.160738,0.160738 -5.536414,0.451616 -12.294722,0.665269 -8.553768,0.270414 -12.474011,0.510578 -16.38796,1.003966 -5.306465,0.668928 -9.111748,1.643889 -12.17974,3.120604 -3.083601,1.484227 -5.199354,3.363534 -6.337248,5.629031 -0.642672,1.279532 -0.31574,2.479522 1.037558,3.808312 1.040207,1.021369 2.315432,1.845558 4.547434,2.939042 2.36611,1.159185 4.314305,1.925581 8.082498,3.179557 6.24951,2.079707 13.327006,3.919037 26.365663,6.852022 7.634047,1.717243 10.91807,2.690602 13.712375,4.064242 2.187113,1.075154 3.400223,2.215645 3.400223,3.196679 0,0.520211 -0.442976,1.258427 -1.036795,1.727815 -2.475483,1.956756 -8.474362,3.289309 -17.525078,3.892909 -2.306702,0.153836 -13.231981,0.223341 -16.332219,0.103904 z"
     id="path322"
     transform="matrix(1.07,0,0,1.07,-3.01,0)" />
</svg>
