<?xml version="1.0" encoding="UTF-8" standalone="no"?>
<!-- Created with Inkscape (http://www.inkscape.org/) -->

<svg
   width="410"
   height="410"
   viewBox="0 0 108.47916 108.47916"
   version="1.1"
   id="svg5"
   xmlns="http://www.w3.org/2000/svg"
   xmlns:svg="http://www.w3.org/2000/svg">
  <defs
     id="defs2" />
  <g
     id="layer1">
    <g
       id="g109"
       transform="matrix(8.797958,0,0,8.797958,49.950487,171.06389)">
      <rect
         style="***REMOVED***ll:#282828;***REMOVED***ll-opacity:1;stroke:none;stroke-width:0.264582"
         id="rect4090"
         width="12.029306"
         height="12.029306"
         x="-5.527143"
         y="-19.293224"
         ry="6.0146532" />
      <path
         style="***REMOVED***ll:#fbf1c7;***REMOVED***ll-opacity:1;stroke:none;stroke-width:0.264582"
         d="m 0.71508705,-16.963778 c 3.61065795,0.603926 1.93813805,1.105656 -0.87654421,0.559952 -0.72704461,-0.14096 -1.09883824,-0.04152 -1.22408224,0.1294 -0.5533992,0.755206 1.36522824,2.046326 2.25751965,2.57411 -4.33227285,-1.079658 -6.31072405,1.880736 -0.69379701,3.099162 0.48059921,0.10426 1.40238626,0.14166 1.39981706,0.279854 -0.00276,0.14856 -2.36836446,0.161 -3.6172617,0.19924 0.8520714,0.2277824 2.90029625,0.3829464 4.2323835,0.2567704 1.294529,-0.12262 1.8606949,-0.5619784 0.227281,-0.9634984 -0.8425862,-0.20712 -4.1453499,-0.833348 -3.7972263,-1.500792 0.50827743,-0.974498 2.7048711,-0.739738 3.9833461,-0.87293 -3.14644306,-2.162664 -3.8603055,-2.672792 0.4096662,-2.115586 1.1170959,0.2479 1.4900979,-1.641772 -0.3836292,-1.716466 -0.412765,-0.0164 -1.2938674,0.03488 -1.91747285,0.0708 z"
         id="path3786" />
    </g>
  </g>
</svg>
