<?xml version="1.0" encoding="UTF-8" standalone="no"?>
<!-- Created with Inkscape (http://www.inkscape.org/) -->

<svg
   width="210"
   height="210"
   viewBox="0 0 55.562497 55.562497"
   version="1.1"
   id="svg5"
   xmlns="http://www.w3.org/2000/svg"
   xmlns:svg="http://www.w3.org/2000/svg">
  <defs
     id="defs2" />
  <g
     id="layer1">
    <g
       id="g109"
       transform="matrix(8.797958,0,0,8.797958,49.950487,171.06389)">
      <rect
         style="***REMOVED***ll:#282828;***REMOVED***ll-opacity:1;stroke:none;stroke-width:0.132291"
         id="rect4090"
         width="6.0146532"
         height="6.0146532"
         x="-5.527143"
         y="-19.293224"
         ry="3.0073266" />
      <path
         style="***REMOVED***ll:#fbf1c7;***REMOVED***ll-opacity:1;stroke:none;stroke-width:0.132291"
         d="m -2.406028,-18.128501 c 1.80532898,0.301963 0.969069,0.552828 -0.4382721,0.279976 -0.3635223,-0.07048 -0.5494191,-0.02076 -0.6120411,0.0647 -0.2766996,0.377603 0.6826141,1.023163 1.1287598,1.287055 -2.1661364,-0.539829 -3.155362,0.940368 -0.3468985,1.549581 0.2402996,0.05213 0.7011931,0.07083 0.6999085,0.139927 -0.00138,0.07428 -1.1841822,0.0805 -1.8086308,0.09962 0.4260357,0.113891 1.4501481,0.191473 2.1161917,0.128385 0.6472645,-0.06131 0.93034748,-0.280989 0.1136405,-0.481749 -0.4212931,-0.10356 -2.0726749,-0.416674 -1.8986131,-0.750396 0.2541387,-0.487249 1.3524355,-0.369869 1.991673,-0.436465 -1.5732215,-1.081332 -1.9301527,-1.336396 0.2048331,-1.057793 0.55854798,0.12395 0.74504898,-0.820886 -0.1918146,-0.858233 -0.2063825,-0.0082 -0.6469337,0.01744 -0.9587364,0.0354 z"
         id="path3786" />
    </g>
  </g>
</svg>
